<svg xmlns="http://www.w3.org/2000/svg" width="148" height="154" viewBox="0 0 148 154" fill="none"><g transform="translate(18 18)"><g transform="translate(22.814 0) scale(1.65)">
    <g stroke-linejoin="round" stroke-linecap="round">
      <path d="M20 6.4 L20 26.8 L8 33.2 Z" fill="#f4f2ee" stroke="#f4f2ee" stroke-width="1.5"/>
      <path d="M20 6.4 L32 33.2 L20 26.8 Z" fill="#6389ff" stroke="#6389ff" stroke-width="1.5"/>
    </g></g><path d="M8.0 107.9L2.2 107.9L2.2 88.9L6.8 88.9L6.9 94.5L7.6 94.5Q8.1 92.4 8.9 91.1Q9.8 89.7 10.9 89.1Q12.1 88.4 13.7 88.4L13.7 88.4Q15.4 88.4 16.5 89.1Q17.6 89.8 18.2 91.2Q18.9 92.5 19.1 94.5L19.1 94.5L19.7 94.5Q20.3 92.4 21.2 91.0Q22.1 89.7 23.4 89.0Q24.7 88.4 26.2 88.4L26.2 88.4Q27.9 88.4 29.1 89.0Q30.3 89.7 31.1 90.9Q31.9 92.2 32.3 94.0Q32.7 95.9 32.7 98.3L32.7 98.3L32.7 107.9L26.9 107.9L26.9 99.0Q26.9 97.1 26.6 95.9Q26.2 94.6 25.6 94.0Q24.9 93.3 23.9 93.3L23.9 93.3Q22.8 93.3 22.0 94.1Q21.2 94.9 20.7 96.2Q20.3 97.6 20.3 99.2L20.3 99.2L20.3 107.9L14.6 107.9L14.6 99.1Q14.6 97.2 14.3 95.9Q13.9 94.6 13.3 94.0Q12.6 93.3 11.6 93.3L11.6 93.3Q10.4 93.3 9.6 94.1Q8.9 94.9 8.4 96.2Q8.0 97.6 8.0 99.2L8.0 99.2L8.0 107.9ZM42.0 114.0L36.2 114.0L36.2 88.9L41.0 88.9L41.0 94.3L41.7 94.4Q42.0 92.4 42.8 91.0Q43.7 89.7 45.0 89.1Q46.3 88.4 48.0 88.4L48.0 88.4Q50.5 88.4 52.3 89.6Q54.1 90.9 55.1 93.1Q56.1 95.4 56.1 98.6L56.1 98.6Q56.1 101.4 55.2 103.6Q54.4 105.8 52.7 107.1Q51.0 108.4 48.3 108.4L48.3 108.4Q46.6 108.4 45.3 107.8Q44.1 107.2 43.3 105.9Q42.4 104.7 41.9 102.9L41.9 102.9L41.2 102.9Q41.4 103.9 41.6 104.9Q41.7 105.9 41.9 106.8Q42.0 107.7 42.0 108.6L42.0 108.6L42.0 114.0ZM46.2 103.9L46.2 103.9Q47.4 103.9 48.2 103.2Q49.1 102.6 49.6 101.4Q50.0 100.2 50.0 98.6L50.0 98.6Q50.0 96.9 49.5 95.7Q49.1 94.5 48.2 93.8Q47.3 93.2 46.1 93.2L46.1 93.2Q44.9 93.2 44.2 93.6Q43.4 94.1 42.9 94.9Q42.4 95.7 42.2 96.5Q42.0 97.4 42.0 98.2L42.0 98.2L42.0 99.0Q42.0 99.6 42.2 100.3Q42.4 101.0 42.7 101.6Q43.1 102.3 43.6 102.8Q44.1 103.3 44.8 103.6Q45.4 103.9 46.2 103.9ZM64.6 107.9L58.8 107.9L58.8 88.9L64.6 88.9L64.6 107.9ZM61.7 86.2L61.7 86.2Q60.1 86.2 59.2 85.5Q58.3 84.8 58.3 83.5L58.3 83.5Q58.3 82.2 59.2 81.5Q60.1 80.8 61.7 80.8L61.7 80.8Q63.4 80.8 64.3 81.5Q65.2 82.2 65.2 83.5L65.2 83.5Q65.2 84.8 64.3 85.5Q63.4 86.2 61.7 86.2ZM74.1 107.9L68.4 107.9L68.4 82L74.1 82L74.1 107.9ZM86.7 108.4L86.7 108.4Q83.8 108.4 81.6 107.3Q79.4 106.2 78.1 104.0Q76.8 101.7 76.8 98.4L76.8 98.4Q76.8 95.0 78.1 92.8Q79.4 90.6 81.6 89.5Q83.8 88.4 86.7 88.4L86.7 88.4Q89.6 88.4 91.8 89.5Q94.0 90.6 95.3 92.9Q96.6 95.1 96.6 98.4L96.6 98.4Q96.6 101.8 95.3 104.1Q94.0 106.3 91.7 107.4Q89.5 108.4 86.7 108.4ZM86.8 104.2L86.8 104.2Q88.1 104.2 89 103.6Q89.9 103.0 90.3 101.8Q90.7 100.6 90.7 98.8L90.7 98.8Q90.7 96.9 90.3 95.6Q89.8 94.2 88.9 93.5Q88.0 92.8 86.5 92.8L86.5 92.8Q85.3 92.8 84.4 93.4Q83.5 94.0 83.1 95.2Q82.7 96.5 82.7 98.3L82.7 98.3Q82.7 101.3 83.8 102.7Q84.9 104.2 86.8 104.2ZM106.7 108.4L106.7 108.4Q103.3 108.4 101.7 106.6Q100.1 104.8 100.1 100.9L100.1 100.9L100.1 93.4L97.4 93.4L97.6 88.9L99.5 88.9Q100.6 88.9 101.2 88.6Q101.8 88.3 102.0 87.4L102.0 87.4L102.4 84.7L105.7 84.7L105.7 88.9L110.3 88.9L110.3 93.6L105.7 93.6L105.7 100.6Q105.7 101.9 106.3 102.4Q106.9 103.0 108.1 103.0L108.1 103.0Q108.8 103.0 109.4 102.9Q110.0 102.7 110.4 102.5L110.4 102.5L110.4 107.8Q109.3 108.2 108.3 108.3Q107.4 108.4 106.7 108.4Z" fill="#f4f2ee"/></g></svg>