<svg xmlns="http://www.w3.org/2000/svg" width="240" height="84" viewBox="0 0 240 84" fill="none"><g transform="translate(16 16)"><g transform="translate(0 0) scale(1.3)">
    <g stroke-linejoin="round" stroke-linecap="round">
      <path d="M20 6.4 L20 26.8 L8 33.2 Z" fill="#f4f2ee" stroke="#f4f2ee" stroke-width="1.5"/>
      <path d="M20 6.4 L32 33.2 L20 26.8 Z" fill="#6389ff" stroke="#6389ff" stroke-width="1.5"/>
    </g></g><path d="M75.3 42.3L67.9 42.3L67.9 18.0L73.7 18.0L73.8 25.2L74.7 25.2Q75.3 22.5 76.4 20.8Q77.5 19.1 79.0 18.2Q80.5 17.4 82.5 17.4L82.5 17.4Q84.6 17.4 86.0 18.3Q87.4 19.2 88.3 20.9Q89.1 22.6 89.4 25.2L89.4 25.2L90.2 25.2Q90.9 22.5 92.1 20.7Q93.3 19.0 94.9 18.2Q96.6 17.4 98.5 17.4L98.5 17.4Q100.6 17.4 102.1 18.2Q103.7 19.0 104.7 20.6Q105.8 22.2 106.3 24.6Q106.8 26.9 106.8 30.0L106.8 30.0L106.8 42.3L99.3 42.3L99.3 31.0Q99.3 28.5 98.9 26.9Q98.5 25.3 97.7 24.5Q96.9 23.7 95.6 23.7L95.6 23.7Q94.1 23.7 93.1 24.7Q92.0 25.6 91.5 27.4Q90.9 29.1 90.9 31.2L90.9 31.2L90.9 42.3L83.7 42.3L83.7 31.1Q83.7 28.6 83.2 27.0Q82.8 25.4 82.0 24.5Q81.1 23.7 79.8 23.7L79.8 23.7Q78.3 23.7 77.3 24.7Q76.3 25.6 75.8 27.4Q75.3 29.1 75.3 31.2L75.3 31.2L75.3 42.3ZM118.7 50.1L111.3 50.1L111.3 18.0L117.3 18.0L117.4 24.9L118.2 25.0Q118.7 22.5 119.7 20.8Q120.8 19.1 122.5 18.2Q124.1 17.4 126.3 17.4L126.3 17.4Q129.5 17.4 131.8 19.0Q134.2 20.5 135.4 23.4Q136.6 26.3 136.6 30.4L136.6 30.4Q136.6 34.0 135.6 36.8Q134.5 39.7 132.3 41.3Q130.1 43.0 126.8 43.0L126.8 43.0Q124.5 43.0 122.9 42.2Q121.4 41.4 120.3 39.8Q119.2 38.2 118.5 35.9L118.5 35.9L117.6 35.9Q117.9 37.1 118.1 38.4Q118.3 39.7 118.5 40.9Q118.7 42.1 118.7 43.2L118.7 43.2L118.7 50.1ZM124.0 37.1L124.0 37.1Q125.6 37.1 126.6 36.3Q127.7 35.5 128.3 34.0Q128.9 32.4 128.9 30.4L128.9 30.4Q128.9 28.3 128.3 26.7Q127.7 25.2 126.5 24.3Q125.4 23.5 123.9 23.5L123.9 23.5Q122.4 23.5 121.4 24.1Q120.4 24.7 119.8 25.7Q119.2 26.7 118.9 27.8Q118.7 28.9 118.7 29.9L118.7 29.9L118.7 30.9Q118.7 31.8 118.9 32.6Q119.1 33.5 119.6 34.3Q120.0 35.1 120.7 35.8Q121.3 36.4 122.2 36.8Q123.0 37.1 124.0 37.1ZM147.6 42.3L140.2 42.3L140.2 18.0L147.6 18.0L147.6 42.3ZM143.9 14.6L143.9 14.6Q141.8 14.6 140.6 13.7Q139.5 12.8 139.5 11.2L139.5 11.2Q139.5 9.4 140.6 8.5Q141.8 7.6 143.9 7.6L143.9 7.6Q146.0 7.6 147.2 8.5Q148.3 9.4 148.3 11.1L148.3 11.1Q148.3 12.8 147.2 13.7Q146.0 14.6 143.9 14.6ZM159.7 42.3L152.4 42.3L152.4 9.2L159.7 9.2L159.7 42.3ZM175.7 43.0L175.7 43.0Q172.0 43.0 169.2 41.5Q166.4 40.1 164.8 37.3Q163.2 34.4 163.2 30.1L163.2 30.1Q163.2 25.9 164.8 23.0Q166.4 20.2 169.2 18.8Q172.1 17.4 175.8 17.4L175.8 17.4Q179.4 17.4 182.3 18.8Q185.1 20.3 186.7 23.1Q188.4 25.9 188.4 30.2L188.4 30.2Q188.4 34.6 186.7 37.4Q185.0 40.3 182.2 41.6Q179.3 43.0 175.7 43.0ZM175.9 37.6L175.9 37.6Q177.6 37.6 178.7 36.8Q179.8 36.1 180.4 34.5Q180.9 32.9 180.9 30.6L180.9 30.6Q180.9 28.2 180.3 26.5Q179.7 24.8 178.5 24.0Q177.4 23.1 175.5 23.1L175.5 23.1Q174.0 23.1 172.8 23.8Q171.7 24.6 171.2 26.1Q170.6 27.7 170.6 30.0L170.6 30.0Q170.6 33.8 172.0 35.7Q173.4 37.6 175.9 37.6ZM201.3 42.9L201.3 42.9Q197.0 42.9 195.0 40.7Q192.9 38.4 192.9 33.4L192.9 33.4L192.9 23.8L189.5 23.8L189.6 18.1L192.1 18.1Q193.6 18.0 194.3 17.6Q195.1 17.2 195.3 16.1L195.3 16.1L195.9 12.7L200.1 12.7L200.1 18.0L205.9 18.0L205.9 24.1L200.1 24.1L200.1 33.0Q200.1 34.6 200.8 35.3Q201.6 36.1 203.1 36.1L203.1 36.1Q204.0 36.1 204.8 35.9Q205.6 35.7 206.1 35.4L206.1 35.4L206.1 42.2Q204.6 42.7 203.4 42.8Q202.2 42.9 201.3 42.9Z" fill="#f4f2ee"/></g></svg>