<svg xmlns="http://www.w3.org/2000/svg" width="183" height="72" viewBox="0 0 183 72" fill="none"><path d="M16.5 52L7.5 52L7.5 22.4L14.6 22.4L14.7 31.1L15.8 31.1Q16.6 27.9 17.9 25.8Q19.2 23.7 21.0 22.7Q22.9 21.6 25.3 21.6L25.3 21.6Q27.9 21.6 29.6 22.7Q31.3 23.8 32.3 25.9Q33.3 28.0 33.7 31.1L33.7 31.1L34.6 31.1Q35.5 27.8 37.0 25.7Q38.4 23.6 40.5 22.6Q42.5 21.6 44.8 21.6L44.8 21.6Q47.3 21.6 49.2 22.6Q51.1 23.6 52.4 25.5Q53.6 27.5 54.2 30.4Q54.8 33.2 54.8 37.0L54.8 37.0L54.8 52L45.8 52L45.8 38.2Q45.8 35.2 45.3 33.2Q44.8 31.3 43.8 30.3Q42.8 29.3 41.2 29.3L41.2 29.3Q39.4 29.3 38.2 30.5Q36.9 31.7 36.3 33.8Q35.6 35.9 35.6 38.5L35.6 38.5L35.6 52L26.7 52L26.7 38.3Q26.7 35.3 26.2 33.3Q25.7 31.3 24.6 30.3Q23.6 29.3 22.0 29.3L22.0 29.3Q20.2 29.3 19.0 30.5Q17.8 31.7 17.1 33.8Q16.5 35.9 16.5 38.5L16.5 38.5L16.5 52ZM69.4 61.5L60.4 61.5L60.4 22.4L67.8 22.4L67.9 30.8L68.9 30.9Q69.4 27.8 70.7 25.7Q72.0 23.7 74.0 22.7Q76.1 21.6 78.7 21.6L78.7 21.6Q82.6 21.6 85.5 23.6Q88.3 25.5 89.8 29.0Q91.3 32.5 91.3 37.4L91.3 37.4Q91.3 41.8 90.0 45.3Q88.7 48.8 86.0 50.8Q83.4 52.8 79.3 52.8L79.3 52.8Q76.5 52.8 74.6 51.8Q72.7 50.8 71.4 48.9Q70.1 47.0 69.2 44.2L69.2 44.2L68.1 44.2Q68.5 45.7 68.7 47.2Q69.0 48.8 69.2 50.3Q69.4 51.7 69.4 53.1L69.4 53.1L69.4 61.5ZM76.0 45.7L76.0 45.7Q77.8 45.7 79.1 44.7Q80.4 43.7 81.2 41.8Q81.9 40.0 81.9 37.5L81.9 37.5Q81.9 34.9 81.1 33.0Q80.4 31.1 79.0 30.1Q77.6 29.0 75.7 29.0L75.7 29.0Q74.0 29.0 72.8 29.8Q71.6 30.6 70.8 31.8Q70.1 33.0 69.8 34.3Q69.4 35.6 69.4 36.8L69.4 36.8L69.4 38.1Q69.4 39.1 69.7 40.2Q70.0 41.2 70.5 42.2Q71.1 43.2 71.9 44.0Q72.7 44.8 73.7 45.2Q74.7 45.7 76.0 45.7ZM104.7 52L95.7 52L95.7 22.4L104.7 22.4L104.7 52ZM100.2 18.3L100.2 18.3Q97.6 18.3 96.3 17.2Q94.9 16.1 94.9 14.1L94.9 14.1Q94.9 12.0 96.3 10.9Q97.6 9.8 100.2 9.8L100.2 9.8Q102.9 9.8 104.2 10.9Q105.6 12.0 105.6 14.0L105.6 14.0Q105.6 16.1 104.2 17.2Q102.9 18.3 100.2 18.3ZM119.6 52L110.7 52L110.7 11.7L119.6 11.7L119.6 52ZM139.2 52.8L139.2 52.8Q134.7 52.8 131.2 51.0Q127.8 49.3 125.8 45.8Q123.9 42.4 123.9 37.2L123.9 37.2Q123.9 32.0 125.8 28.5Q127.8 25.1 131.3 23.4Q134.7 21.6 139.2 21.6L139.2 21.6Q143.7 21.6 147.2 23.4Q150.6 25.1 152.6 28.6Q154.6 32.0 154.6 37.2L154.6 37.2Q154.6 42.5 152.5 46.0Q150.5 49.5 147.0 51.1Q143.5 52.8 139.2 52.8ZM139.4 46.2L139.4 46.2Q141.5 46.2 142.8 45.3Q144.1 44.4 144.8 42.5Q145.5 40.6 145.5 37.8L145.5 37.8Q145.5 34.8 144.8 32.8Q144.0 30.7 142.6 29.6Q141.2 28.5 138.9 28.5L138.9 28.5Q137.0 28.5 135.7 29.5Q134.3 30.4 133.6 32.3Q132.9 34.2 132.9 37.0L132.9 37.0Q132.9 41.6 134.7 43.9Q136.4 46.2 139.4 46.2ZM170.4 52.7L170.4 52.7Q165.2 52.7 162.7 50.0Q160.2 47.2 160.2 41.1L160.2 41.1L160.2 29.5L156.0 29.5L156.2 22.5L159.2 22.5Q161.0 22.4 161.9 21.9Q162.9 21.4 163.1 20.0L163.1 20.0L163.8 15.9L168.9 15.9L168.9 22.4L176.0 22.4L176.0 29.8L168.9 29.8L168.9 40.7Q168.9 42.6 169.8 43.5Q170.8 44.4 172.7 44.4L172.7 44.4Q173.7 44.4 174.7 44.2Q175.6 43.9 176.2 43.5L176.2 43.5L176.2 51.9Q174.4 52.4 173.0 52.6Q171.5 52.7 170.4 52.7Z" fill="#f4f2ee"/></svg>