<svg xmlns="http://www.w3.org/2000/svg" width="1200" height="630" viewBox="0 0 1200 630" fill="none"><defs>
      <pattern id="b3p" width="64" height="64" patternUnits="userSpaceOnUse"><path d="M64 0H0V64" fill="none" stroke="#2b2e33" stroke-width="1"/></pattern>
      <radialGradient id="b3r" cx="50%" cy="42%" r="62%"><stop offset="0%" stop-color="#fff" stop-opacity="1"/><stop offset="100%" stop-color="#fff" stop-opacity="0"/></radialGradient>
      <mask id="b3m"><rect width="1200" height="630" fill="url(#b3r)"/></mask>
    </defs><rect width="1200" height="630" fill="#0f1014"/><rect width="1200" height="630" fill="url(#b3p)" mask="url(#b3m)"/><g transform="translate(488.872 132)"><g transform="translate(63.128 0) scale(2.4)">
    <g stroke-linejoin="round" stroke-linecap="round">
      <path d="M20 6.4 L20 26.8 L8 33.2 Z" fill="#f4f2ee" stroke="#f4f2ee" stroke-width="1.5"/>
      <path d="M20 6.4 L32 33.2 L20 26.8 Z" fill="#6389ff" stroke="#6389ff" stroke-width="1.5"/>
    </g></g><path d="M16.1 173.8L4.5 173.8L4.5 135.8L13.6 135.8L13.8 147.0L15.2 147.0Q16.2 142.9 17.9 140.2Q19.5 137.5 21.9 136.1Q24.3 134.8 27.4 134.8L27.4 134.8Q30.7 134.8 32.9 136.2Q35.1 137.6 36.4 140.3Q37.7 143.0 38.2 147.0L38.2 147.0L39.4 147.0Q40.5 142.7 42.4 140.0Q44.3 137.3 46.9 136.1Q49.5 134.8 52.5 134.8L52.5 134.8Q55.7 134.8 58.1 136.1Q60.6 137.3 62.2 139.8Q63.8 142.3 64.6 146.0Q65.4 149.7 65.4 154.6L65.4 154.6L65.4 173.8L53.7 173.8L53.7 156.1Q53.7 152.2 53.1 149.7Q52.5 147.2 51.2 145.9Q49.9 144.7 47.9 144.7L47.9 144.7Q45.6 144.7 44.0 146.2Q42.3 147.7 41.5 150.4Q40.6 153.1 40.6 156.5L40.6 156.5L40.6 173.8L29.2 173.8L29.2 156.3Q29.2 152.3 28.5 149.8Q27.9 147.3 26.5 146.0Q25.2 144.7 23.2 144.7L23.2 144.7Q20.9 144.7 19.3 146.2Q17.7 147.7 16.9 150.4Q16.1 153.1 16.1 156.5L16.1 156.5L16.1 173.8ZM83.8 186.0L72.2 186.0L72.2 135.8L81.7 135.8L81.8 146.6L83.1 146.8Q83.8 142.7 85.4 140.1Q87.1 137.4 89.7 136.1Q92.4 134.8 95.7 134.8L95.7 134.8Q100.8 134.8 104.4 137.3Q108.1 139.7 110 144.2Q111.9 148.8 111.9 155.1L111.9 155.1Q111.9 160.7 110.3 165.2Q108.6 169.7 105.1 172.3Q101.7 174.8 96.5 174.8L96.5 174.8Q92.9 174.8 90.5 173.6Q88.0 172.3 86.3 169.9Q84.7 167.4 83.5 163.8L83.5 163.8L82.1 163.8Q82.6 165.7 82.9 167.7Q83.3 169.7 83.5 171.6Q83.8 173.5 83.8 175.2L83.8 175.2L83.8 186.0ZM92.2 165.7L92.2 165.7Q94.6 165.7 96.3 164.4Q98.0 163.1 98.9 160.7Q99.8 158.4 99.8 155.2L99.8 155.2Q99.8 151.8 98.9 149.4Q97.9 147.0 96.1 145.7Q94.3 144.3 91.9 144.3L91.9 144.3Q89.7 144.3 88.1 145.3Q86.6 146.3 85.6 147.8Q84.7 149.4 84.2 151.1Q83.8 152.8 83.8 154.3L83.8 154.3L83.8 155.9Q83.8 157.3 84.2 158.6Q84.5 160.0 85.2 161.3Q86.0 162.5 87.0 163.5Q88.0 164.6 89.3 165.1Q90.6 165.7 92.2 165.7ZM128.8 173.8L117.3 173.8L117.3 135.8L128.8 135.8L128.8 173.8ZM123.1 130.5L123.1 130.5Q119.8 130.5 118.0 129.1Q116.2 127.7 116.2 125.1L116.2 125.1Q116.2 122.4 118.0 121.0Q119.8 119.6 123.1 119.6L123.1 119.6Q126.5 119.6 128.2 121.0Q130 122.4 130 125.0L130 125.0Q130 127.7 128.2 129.1Q126.5 130.5 123.1 130.5ZM147.6 173.8L136.2 173.8L136.2 122L147.6 122L147.6 173.8ZM172.5 174.8L172.5 174.8Q166.8 174.8 162.3 172.6Q157.9 170.4 155.4 165.9Q152.9 161.5 152.9 154.8L152.9 154.8Q152.9 148.1 155.4 143.6Q157.9 139.2 162.4 137.0Q166.8 134.8 172.6 134.8L172.6 134.8Q178.4 134.8 182.8 137.0Q187.3 139.3 189.8 143.7Q192.3 148.1 192.3 154.8L192.3 154.8Q192.3 161.7 189.7 166.1Q187.1 170.6 182.6 172.7Q178.1 174.8 172.5 174.8ZM172.9 166.4L172.9 166.4Q175.5 166.4 177.2 165.2Q178.9 164.0 179.8 161.6Q180.7 159.2 180.7 155.6L180.7 155.6Q180.7 151.7 179.7 149.1Q178.8 146.5 176.9 145.1Q175.1 143.7 172.2 143.7L172.2 143.7Q169.8 143.7 168.0 144.9Q166.3 146.0 165.4 148.5Q164.5 150.9 164.5 154.6L164.5 154.6Q164.5 160.5 166.7 163.5Q168.9 166.4 172.9 166.4ZM212.3 174.8L212.3 174.8Q205.6 174.8 202.5 171.2Q199.3 167.6 199.3 159.8L199.3 159.8L199.3 144.9L193.9 144.9L194.1 135.9L198.0 135.9Q200.3 135.8 201.5 135.2Q202.7 134.5 203.0 132.7L203.0 132.7L203.9 127.4L210.4 127.4L210.4 135.8L219.6 135.8L219.6 145.3L210.4 145.3L210.4 159.3Q210.4 161.7 211.6 162.9Q212.8 164.0 215.3 164.0L215.3 164.0Q216.6 164.0 217.9 163.8Q219.1 163.5 219.9 163.0L219.9 163.0L219.9 173.7Q217.6 174.4 215.7 174.6Q213.8 174.8 212.3 174.8Z" fill="#f1f0ed"/></g><path d="M357.2 402.2L353.4 402.2L361.7 381.3L364.4 381.3L372.6 402.2L368.8 402.2L367.2 397.8L358.8 397.8L357.2 402.2ZM360.0 394.7L366.1 394.7L363.0 386.4L360.0 394.7ZM379.6 402.5L379.6 402.5Q377.9 402.5 376.7 401.8Q375.5 401.1 374.9 399.8Q374.3 398.5 374.3 396.7L374.3 396.7L374.3 387.4L377.6 387.4L377.6 395.8Q377.6 396.9 377.9 397.8Q378.2 398.7 378.9 399.1Q379.5 399.6 380.6 399.6L380.6 399.6Q381.9 399.6 382.6 398.9Q383.4 398.2 383.7 396.9Q384.0 395.6 384.0 393.8L384.0 393.8L384.0 387.4L387.3 387.4L387.3 402.2L384.0 402.2L384.0 400.3Q383.4 401.2 382.6 401.7L382.6 401.7Q381.3 402.5 379.6 402.5ZM396.2 402.5L396.2 402.5Q395.1 402.5 394.1 402.0Q393.2 401.6 392.6 400.6Q392.0 399.6 392.0 398.1L392.0 398.1L392.0 390.0L389.2 390.0L389.2 387.4L392.0 387.4L392.0 383.8L395.4 381.9L395.4 387.4L398.7 387.4L398.7 390.0L395.4 390.0L395.4 397.1Q395.4 398.4 395.8 399.1Q396.1 399.7 397.1 399.7L397.1 399.7Q397.4 399.7 397.8 399.7Q398.2 399.6 398.7 399.5L398.7 399.5L398.7 402.1Q398.1 402.3 397.5 402.4Q396.9 402.5 396.2 402.5ZM407.6 402.5L407.6 402.5Q405.5 402.5 403.8 401.5Q402.2 400.5 401.2 398.8Q400.3 397.0 400.3 394.8L400.3 394.8Q400.3 392.6 401.2 390.8Q402.2 389.1 403.8 388.1Q405.5 387.1 407.6 387.1L407.6 387.1Q409.8 387.1 411.4 388.1Q413.0 389.1 414.0 390.8Q415.0 392.6 415.0 394.8L415.0 394.8Q415.0 397.0 414.0 398.8Q413.1 400.5 411.4 401.5Q409.7 402.5 407.6 402.5ZM407.6 399.5L407.6 399.5Q408.9 399.5 409.8 399.0Q410.7 398.4 411.2 397.3Q411.6 396.2 411.6 394.8L411.6 394.8Q411.6 393.3 411.2 392.3Q410.7 391.2 409.8 390.6Q408.9 390.1 407.6 390.1L407.6 390.1Q406.4 390.1 405.5 390.6Q404.6 391.2 404.1 392.3Q403.6 393.3 403.6 394.8L403.6 394.8Q403.6 396.2 404.1 397.3Q404.6 398.4 405.5 399.0Q406.4 399.5 407.6 399.5ZM421.1 402.2L417.8 402.2L417.8 387.4L421.1 387.4L421.1 389.4Q421.3 389.1 421.6 388.7L421.6 388.7Q422.4 387.9 423.4 387.5Q424.4 387.1 425.5 387.1L425.5 387.1Q428.0 387.1 429.4 388.6Q430.8 390.0 430.8 392.6L430.8 392.6L430.8 402.2L427.5 402.2L427.5 393.9Q427.5 391.9 426.7 390.9Q426.0 390.0 424.5 390.0L424.5 390.0Q423.4 390.0 422.7 390.5Q421.9 391.1 421.5 392.2Q421.1 393.3 421.1 395L421.1 395L421.1 402.2ZM440.8 402.5L440.8 402.5Q438.7 402.5 437.0 401.5Q435.3 400.5 434.4 398.8Q433.5 397.0 433.5 394.8L433.5 394.8Q433.5 392.6 434.4 390.8Q435.3 389.1 437.0 388.1Q438.7 387.1 440.8 387.1L440.8 387.1Q443.0 387.1 444.6 388.1Q446.2 389.1 447.2 390.8Q448.2 392.6 448.2 394.8L448.2 394.8Q448.2 397.0 447.2 398.8Q446.3 400.5 444.6 401.5Q442.9 402.5 440.8 402.5ZM440.8 399.5L440.8 399.5Q442.1 399.5 443.0 399.0Q443.9 398.4 444.3 397.3Q444.8 396.2 444.8 394.8L444.8 394.8Q444.8 393.3 444.3 392.3Q443.9 391.2 443.0 390.6Q442.1 390.1 440.8 390.1L440.8 390.1Q439.5 390.1 438.6 390.6Q437.7 391.2 437.3 392.3Q436.8 393.3 436.8 394.8L436.8 394.8Q436.8 396.2 437.3 397.3Q437.7 398.4 438.6 399.0Q439.5 399.5 440.8 399.5ZM454.3 402.2L451.0 402.2L451.0 387.4L454.3 387.4L454.3 389.6Q454.3 389.5 454.4 389.5L454.4 389.5Q454.8 388.6 455.5 388.1Q456.2 387.6 456.9 387.4Q457.7 387.1 458.5 387.1L458.5 387.1Q459.7 387.1 460.7 387.6Q461.8 388.1 462.5 389.1L462.5 389.1Q462.6 389.3 462.8 389.5L462.8 389.5Q462.8 389.4 462.8 389.4L462.8 389.4Q463.6 388.2 464.7 387.7Q465.8 387.1 467.1 387.1L467.1 387.1Q469.0 387.1 470.2 388.0Q471.3 388.8 471.8 390.1Q472.4 391.5 472.4 393.0L472.4 393.0L472.4 402.2L469.1 402.2L469.1 393.8Q469.1 392.6 468.8 391.7Q468.5 390.9 467.9 390.5Q467.3 390.0 466.4 390.0L466.4 390.0Q465.4 390.0 464.7 390.5Q464.0 391.0 463.7 392.0Q463.4 393.1 463.4 394.6L463.4 394.6L463.4 402.2L460.0 402.2L460.0 393.6Q460.0 391.8 459.3 390.9Q458.6 390.0 457.4 390.0L457.4 390.0Q456.4 390.0 455.7 390.5Q455.0 391.0 454.7 392.0Q454.3 393.1 454.3 394.6L454.3 394.6L454.3 402.2ZM482.4 402.5L482.4 402.5Q480.3 402.5 478.6 401.5Q476.9 400.5 476.0 398.8Q475.0 397.0 475.0 394.8L475.0 394.8Q475.0 392.6 476.0 390.8Q476.9 389.1 478.6 388.1Q480.2 387.1 482.4 387.1L482.4 387.1Q484.5 387.1 486.2 388.1Q487.8 389.1 488.8 390.8Q489.7 392.6 489.7 394.8L489.7 394.8Q489.7 397.0 488.8 398.8Q487.8 400.5 486.2 401.5Q484.5 402.5 482.4 402.5ZM482.4 399.5L482.4 399.5Q483.6 399.5 484.5 399.0Q485.4 398.4 485.9 397.3Q486.4 396.2 486.4 394.8L486.4 394.8Q486.4 393.3 485.9 392.3Q485.4 391.2 484.5 390.6Q483.6 390.1 482.4 390.1L482.4 390.1Q481.1 390.1 480.2 390.6Q479.3 391.2 478.8 392.3Q478.3 393.3 478.3 394.8L478.3 394.8Q478.3 396.2 478.8 397.3Q479.3 398.4 480.2 399.0Q481.1 399.5 482.4 399.5ZM497.7 402.5L497.7 402.5Q495.9 402.5 494.7 401.8Q493.5 401.1 492.9 399.8Q492.3 398.5 492.3 396.7L492.3 396.7L492.3 387.4L495.7 387.4L495.7 395.8Q495.7 396.9 496.0 397.8Q496.2 398.7 496.9 399.1Q497.5 399.6 498.6 399.6L498.6 399.6Q499.9 399.6 500.7 398.9Q501.4 398.2 501.7 396.9Q502.0 395.6 502.0 393.8L502.0 393.8L502.0 387.4L505.4 387.4L505.4 402.2L502.0 402.2L502.0 400.3Q501.4 401.2 500.6 401.7L500.6 401.7Q499.3 402.5 497.7 402.5ZM513.9 402.5L513.9 402.5Q512.3 402.5 511.1 402.0Q509.9 401.5 509.0 400.8Q508.2 400.1 507.7 399.4L507.7 399.4L509.9 397.4Q510.5 398.3 511.5 399.1Q512.5 399.8 514.0 399.8L514.0 399.8Q515.2 399.8 515.9 399.3Q516.6 398.8 516.6 398L516.6 398Q516.6 397.3 516.1 397.0Q515.7 396.6 515.0 396.3Q514.2 396.1 513.4 395.8L513.4 395.8Q512.5 395.6 511.7 395.3Q510.8 395 510.1 394.5Q509.3 394.0 508.9 393.3Q508.4 392.5 508.4 391.4L508.4 391.4Q508.4 389.5 509.9 388.3Q511.4 387.1 513.8 387.1L513.8 387.1Q515.6 387.1 517.0 387.8Q518.5 388.5 519.3 389.9L519.3 389.9L517.2 391.5Q516.6 390.6 515.7 390.1Q514.8 389.7 513.8 389.7L513.8 389.7Q512.8 389.7 512.2 390.1Q511.5 390.5 511.5 391.1L511.5 391.1Q511.5 391.6 511.8 391.9Q512.1 392.2 512.7 392.4Q513.4 392.7 514.3 392.9L514.3 392.9Q515.2 393.1 516.2 393.4Q517.1 393.7 518.0 394.2Q518.8 394.7 519.3 395.5Q519.8 396.3 519.8 397.6L519.8 397.6Q519.8 399.1 519.1 400.2Q518.4 401.3 517.0 401.9Q515.7 402.5 513.9 402.5ZM532.2 402.2L528.4 402.2L536.7 381.3L539.3 381.3L547.6 402.2L543.8 402.2L542.2 397.8L533.8 397.8L532.2 402.2ZM534.9 394.7L541.1 394.7L538.0 386.4L534.9 394.7ZM553.1 402.2L549.6 402.2L549.6 381.3L553.1 381.3L553.1 402.2ZM576.8 402.2L573.7 402.2L573.5 400.1Q573.5 400.3 573.4 400.3L573.4 400.3Q572.6 401.4 571.5 401.9Q570.4 402.5 569.1 402.5L569.1 402.5Q567.5 402.5 566.2 401.9Q564.9 401.3 564.2 400.2Q563.5 399.1 563.5 397.7L563.5 397.7Q563.5 396.4 564.1 395.5Q564.6 394.6 565.4 394.1L565.4 394.1Q566.1 393.7 567.1 393.5Q568.1 393.3 569.1 393.3L569.1 393.3L573.5 393.3L573.5 392.9Q573.5 391.4 572.6 390.7Q571.8 390.0 570.2 390.0L570.2 390.0Q569.0 390.0 567.8 390.4Q566.7 390.9 565.7 391.8L565.7 391.8L563.9 389.7Q565.3 388.3 566.9 387.7Q568.5 387.1 570.5 387.1L570.5 387.1Q573.5 387.1 575.1 388.7Q576.8 390.2 576.8 392.9L576.8 392.9L576.8 402.2ZM573.5 396.1L573.5 395.8L569.6 395.8Q569.1 395.8 568.5 395.9Q568.0 396.0 567.6 396.3L567.6 396.3Q567.3 396.5 567.1 396.9Q566.9 397.2 566.9 397.7L566.9 397.7Q566.9 398.7 567.6 399.2Q568.3 399.8 569.6 399.8L569.6 399.8Q570.6 399.8 571.5 399.3Q572.4 398.8 573.0 398.0Q573.5 397.1 573.5 396.1L573.5 396.1ZM586.3 408.6L586.3 408.6Q583.0 408.6 581.1 407.4Q579.2 406.3 579.2 404.2L579.2 404.2Q579.2 404.0 579.2 403.8Q579.2 403.6 579.3 403.3L579.3 403.3L581.6 401.8Q581.0 401.5 580.5 401.1L580.5 401.1Q579.6 400.3 579.6 399.0L579.6 399.0Q579.6 397.9 580.4 396.9L580.4 396.9Q580.7 396.5 581.2 396.1L581.2 396.1Q580.9 395.8 580.6 395.3L580.6 395.3Q579.8 394.1 579.8 392.6L579.8 392.6Q579.8 390.9 580.7 389.7Q581.5 388.5 582.8 387.8Q584.2 387.1 585.8 387.1Q587.4 387.1 588.8 387.8L588.8 387.8Q589.1 387.9 589.3 388.1L589.3 388.1L591.7 386.1L593.4 388.2L591.2 390.1Q591.8 391.2 591.8 392.7L591.8 392.7Q591.8 394.3 591.0 395.4Q590.3 396.6 589.0 397.3Q587.7 397.9 585.9 397.9L585.9 397.9Q584.3 397.9 582.9 397.3L582.9 397.3Q582.9 397.3 582.9 397.3L582.9 397.3Q582.5 397.8 582.5 398.4L582.5 398.4Q582.5 398.9 582.9 399.2Q583.3 399.5 584 399.7Q584.7 399.8 585.8 400.0L585.8 400.0Q587.3 400.2 588.6 400.4Q589.9 400.6 590.8 401.1Q591.8 401.5 592.3 402.3Q592.8 403.0 592.8 404.2L592.8 404.2Q592.8 406.3 591.1 407.5Q589.4 408.6 586.3 408.6ZM585.9 395.2L585.9 395.2Q587.2 395.2 587.8 394.4Q588.5 393.6 588.5 392.5L588.5 392.5Q588.5 391.3 587.8 390.6Q587.0 389.9 585.9 389.9L585.9 389.9Q584.6 389.9 583.9 390.6Q583.2 391.3 583.2 392.5L583.2 392.5Q583.2 393.6 583.9 394.4Q584.6 395.2 585.9 395.2ZM583.5 402.5L583.5 402.5L582.3 404Q582.2 404.1 582.2 404.1L582.2 404.1L582.2 404.3Q582.2 405.3 583.4 405.8Q584.5 406.3 586.3 406.3L586.3 406.3Q587.8 406.3 588.7 405.8Q589.6 405.4 589.6 404.6L589.6 404.6Q589.6 404.2 589.3 403.9Q589.0 403.6 588.5 403.4Q587.9 403.3 587.1 403.1Q586.4 403.0 585.3 402.9L585.3 402.9Q584.4 402.7 583.5 402.5ZM601.5 402.5L601.5 402.5Q599.6 402.5 598.2 401.9Q596.9 401.3 596.0 400.2Q595.1 399.1 594.7 397.7Q594.3 396.4 594.3 394.9Q594.3 393.4 594.7 392.0Q595.1 390.6 595.9 389.5Q596.8 388.4 598.1 387.8Q599.4 387.1 601.2 387.1L601.2 387.1Q602.9 387.1 604.2 387.7Q605.5 388.3 606.3 389.3Q607.2 390.4 607.6 391.7Q608.0 393.0 608.0 394.5L608.0 394.5Q608.0 394.7 608.0 395.1Q607.9 395.5 607.9 395.9L607.9 395.9L597.6 395.9Q597.7 397.7 598.8 398.6Q599.9 399.5 601.6 399.5L601.6 399.5Q602.8 399.5 603.8 399.1Q604.9 398.8 605.7 397.9L605.7 397.9L607.5 400.1Q606.6 401.0 605.7 401.5Q604.7 402.0 603.7 402.2Q602.7 402.5 601.5 402.5ZM597.6 393.4L604.8 393.4Q604.8 393.3 604.8 393.3L604.8 393.3Q604.8 392.6 604.6 392Q604.3 391.4 603.9 390.9Q603.4 390.5 602.8 390.2Q602.1 389.9 601.3 389.9L601.3 389.9Q600.1 389.9 599.3 390.4Q598.5 390.9 598.1 391.7Q597.7 392.5 597.6 393.4L597.6 393.4ZM614.1 402.2L610.8 402.2L610.8 387.4L614.1 387.4L614.1 389.4Q614.4 389.1 614.7 388.7L614.7 388.7Q615.4 387.9 616.4 387.5Q617.4 387.1 618.6 387.1L618.6 387.1Q621.0 387.1 622.4 388.6Q623.8 390.0 623.8 392.6L623.8 392.6L623.8 402.2L620.5 402.2L620.5 393.9Q620.5 391.9 619.8 390.9Q619.1 390.0 617.6 390.0L617.6 390.0Q616.5 390.0 615.7 390.5Q614.9 391.1 614.5 392.2Q614.1 393.3 614.1 395L614.1 395L614.1 402.2ZM632.6 402.5L632.6 402.5Q631.4 402.5 630.5 402.0Q629.5 401.6 628.9 400.6Q628.4 399.6 628.4 398.1L628.4 398.1L628.4 390.0L625.5 390.0L625.5 387.4L628.4 387.4L628.4 383.8L631.7 381.9L631.7 387.4L635.0 387.4L635.0 390.0L631.7 390.0L631.7 397.1Q631.7 398.4 632.1 399.1Q632.5 399.7 633.5 399.7L633.5 399.7Q633.8 399.7 634.2 399.7Q634.6 399.6 635.0 399.5L635.0 399.5L635.0 402.1Q634.4 402.3 633.8 402.4Q633.2 402.5 632.6 402.5ZM649.5 402.2L646.2 402.2L646.2 390.0L643.3 390.0L643.3 387.4L646.2 387.4L646.2 385.7Q646.2 383.9 646.8 382.9Q647.4 381.8 648.4 381.4Q649.4 381.0 650.6 381.0L650.6 381.0Q651.5 381.0 652.2 381.2Q652.8 381.3 653.4 381.6L653.4 381.6L652.4 384.2Q652.1 384.0 651.7 383.9Q651.4 383.8 651.0 383.8L651.0 383.8Q650.2 383.8 649.8 384.3Q649.5 384.8 649.5 385.7L649.5 385.7L649.5 387.4L652.7 387.4L652.7 390.0L649.5 390.0L649.5 402.2ZM661.0 402.5L661.0 402.5Q658.9 402.5 657.2 401.5Q655.5 400.5 654.6 398.8Q653.6 397.0 653.6 394.8L653.6 394.8Q653.6 392.6 654.6 390.8Q655.5 389.1 657.2 388.1Q658.8 387.1 661.0 387.1L661.0 387.1Q663.1 387.1 664.8 388.1Q666.4 389.1 667.4 390.8Q668.3 392.6 668.3 394.8L668.3 394.8Q668.3 397.0 667.4 398.8Q666.4 400.5 664.8 401.5Q663.1 402.5 661.0 402.5ZM661.0 399.5L661.0 399.5Q662.2 399.5 663.1 399.0Q664.0 398.4 664.5 397.3Q665.0 396.2 665.0 394.8L665.0 394.8Q665.0 393.3 664.5 392.3Q664.0 391.2 663.1 390.6Q662.2 390.1 661.0 390.1L661.0 390.1Q659.7 390.1 658.8 390.6Q657.9 391.2 657.4 392.3Q656.9 393.3 656.9 394.8L656.9 394.8Q656.9 396.2 657.4 397.3Q657.9 398.4 658.8 399.0Q659.7 399.5 661.0 399.5ZM674.5 402.2L671.1 402.2L671.1 387.4L674.5 387.4L674.5 389.6Q674.6 389.4 674.7 389.2L674.7 389.2Q675.4 388.3 676.5 387.7Q677.5 387.1 678.5 387.1L678.5 387.1Q679.3 387.1 679.9 387.3Q680.6 387.5 681.3 387.9L681.3 387.9L679.7 390.9Q679.3 390.7 678.8 390.6Q678.3 390.4 677.8 390.4L677.8 390.4Q677.2 390.4 676.6 390.7Q676.0 390.9 675.5 391.4Q675.0 391.9 674.8 392.7L674.8 392.7Q674.6 393.1 674.5 393.8Q674.5 394.5 674.5 395.7L674.5 395.7L674.5 402.2ZM694.4 402.2L690.9 402.2L690.9 381.3L696.0 381.3L701.6 396.1L707.1 381.3L712.2 381.3L712.2 402.2L708.7 402.2L708.7 386.2L703.2 400.4L699.8 400.4L694.4 386.2L694.4 402.2ZM728.5 402.2L725.4 402.2L725.2 400.1Q725.1 400.3 725.0 400.3L725.0 400.3Q724.3 401.4 723.2 401.9Q722.1 402.5 720.8 402.5L720.8 402.5Q719.2 402.5 717.9 401.9Q716.6 401.3 715.9 400.2Q715.2 399.1 715.2 397.7L715.2 397.7Q715.2 396.4 715.7 395.5Q716.2 394.6 717.1 394.1L717.1 394.1Q717.8 393.7 718.8 393.5Q719.7 393.3 720.8 393.3L720.8 393.3L725.2 393.3L725.2 392.9Q725.2 391.4 724.3 390.7Q723.4 390.0 721.9 390.0L721.9 390.0Q720.7 390.0 719.5 390.4Q718.3 390.9 717.4 391.8L717.4 391.8L715.5 389.7Q717.0 388.3 718.6 387.7Q720.2 387.1 722.1 387.1L722.1 387.1Q725.1 387.1 726.8 388.7Q728.5 390.2 728.5 392.9L728.5 392.9L728.5 402.2ZM725.2 396.1L725.2 395.8L721.3 395.8Q720.7 395.8 720.2 395.9Q719.6 396.0 719.2 396.3L719.2 396.3Q718.9 396.5 718.7 396.9Q718.5 397.2 718.5 397.7L718.5 397.7Q718.5 398.7 719.3 399.2Q720.0 399.8 721.2 399.8L721.2 399.8Q722.3 399.8 723.2 399.3Q724.1 398.8 724.6 398.0Q725.2 397.1 725.2 396.1L725.2 396.1ZM735.1 402.2L731.8 402.2L731.8 387.4L735.1 387.4L735.1 389.4Q735.3 389.1 735.6 388.7L735.6 388.7Q736.4 387.9 737.4 387.5Q738.4 387.1 739.5 387.1L739.5 387.1Q742.0 387.1 743.4 388.6Q744.8 390.0 744.8 392.6L744.8 392.6L744.8 402.2L741.5 402.2L741.5 393.9Q741.5 391.9 740.7 390.9Q740.0 390.0 738.5 390.0L738.5 390.0Q737.4 390.0 736.7 390.5Q735.9 391.1 735.5 392.2Q735.1 393.3 735.1 395L735.1 395L735.1 402.2ZM753.5 402.5L753.5 402.5Q752.4 402.5 751.4 402.0Q750.5 401.6 749.9 400.6Q749.3 399.6 749.3 398.1L749.3 398.1L749.3 390.0L746.5 390.0L746.5 387.4L749.3 387.4L749.3 383.8L752.7 381.9L752.7 387.4L756.0 387.4L756.0 390.0L752.7 390.0L752.7 397.1Q752.7 398.4 753.1 399.1Q753.4 399.7 754.4 399.7L754.4 399.7Q754.7 399.7 755.1 399.7Q755.5 399.6 756.0 399.5L756.0 399.5L756.0 402.1Q755.4 402.3 754.8 402.4Q754.1 402.5 753.5 402.5ZM761.8 402.5L761.8 402.5Q760.4 402.5 759.4 401.6Q758.5 400.7 758.5 398.8L758.5 398.8L758.5 381.3L761.8 381.3L761.8 398.1Q761.8 398.8 762.1 399.1Q762.4 399.4 762.9 399.4L762.9 399.4Q763.2 399.4 763.5 399.3Q763.8 399.3 764.1 399.2L764.1 399.2L764.1 402.0Q763.5 402.3 762.9 402.4Q762.3 402.5 761.8 402.5ZM772.8 402.5L772.8 402.5Q771.0 402.5 769.6 401.9Q768.2 401.3 767.4 400.2Q766.5 399.1 766.1 397.7Q765.6 396.4 765.6 394.9Q765.6 393.4 766.0 392.0Q766.5 390.6 767.3 389.5Q768.1 388.4 769.5 387.8Q770.8 387.1 772.6 387.1L772.6 387.1Q774.3 387.1 775.6 387.7Q776.8 388.3 777.7 389.3Q778.5 390.4 778.9 391.7Q779.3 393.0 779.3 394.5L779.3 394.5Q779.3 394.7 779.3 395.1Q779.3 395.5 779.2 395.9L779.2 395.9L769.0 395.9Q769.1 397.7 770.2 398.6Q771.3 399.5 772.9 399.5L772.9 399.5Q774.2 399.5 775.2 399.1Q776.2 398.8 777.0 397.9L777.0 397.9L778.9 400.1Q777.9 401.0 777.0 401.5Q776.1 402.0 775.1 402.2Q774.1 402.5 772.8 402.5ZM768.9 393.4L776.1 393.4Q776.1 393.3 776.1 393.3L776.1 393.3Q776.1 392.6 775.9 392Q775.7 391.4 775.2 390.9Q774.8 390.5 774.1 390.2Q773.5 389.9 772.6 389.9L772.6 389.9Q771.5 389.9 770.7 390.4Q769.9 390.9 769.4 391.7Q769.0 392.5 768.9 393.4L768.9 393.4ZM795.7 402.2L789.7 402.2L789.7 381.3L795.7 381.3Q800.9 381.3 803.8 384.1Q806.6 386.8 806.6 391.9L806.6 391.9Q806.6 396.9 803.8 399.5Q801.0 402.2 795.7 402.2L795.7 402.2ZM793.2 384.5L793.2 399.0L795.4 399.0Q797.8 399.0 799.6 398.3Q801.3 397.7 802.2 396.1Q803.1 394.5 803.1 391.8L803.1 391.8Q803.1 389.1 802.2 387.5Q801.3 385.9 799.7 385.2Q798.0 384.5 795.7 384.5L795.7 384.5L793.2 384.5ZM815.9 402.5L815.9 402.5Q814.1 402.5 812.7 401.9Q811.3 401.3 810.5 400.2Q809.6 399.1 809.2 397.7Q808.8 396.4 808.8 394.9Q808.8 393.4 809.2 392.0Q809.6 390.6 810.4 389.5Q811.2 388.4 812.6 387.8Q813.9 387.1 815.7 387.1L815.7 387.1Q817.4 387.1 818.7 387.7Q819.9 388.3 820.8 389.3Q821.6 390.4 822.0 391.7Q822.4 393.0 822.4 394.5L822.4 394.5Q822.4 394.7 822.4 395.1Q822.4 395.5 822.3 395.9L822.3 395.9L812.1 395.9Q812.2 397.7 813.3 398.6Q814.4 399.5 816.0 399.5L816.0 399.5Q817.3 399.5 818.3 399.1Q819.3 398.8 820.2 397.9L820.2 397.9L822.0 400.1Q821.1 401.0 820.1 401.5Q819.2 402.0 818.2 402.2Q817.2 402.5 815.9 402.5ZM812.0 393.4L819.3 393.4Q819.3 393.3 819.3 393.3L819.3 393.3Q819.3 392.6 819.0 392Q818.8 391.4 818.4 390.9Q817.9 390.5 817.2 390.2Q816.6 389.9 815.7 389.9L815.7 389.9Q814.6 389.9 813.8 390.4Q813.0 390.9 812.5 391.7Q812.1 392.5 812.0 393.4L812.0 393.4ZM828.9 402.2L825.5 402.2L825.5 381.3L839.3 381.3L839.3 384.4L828.9 384.4L828.9 389.9L838.0 389.9L838.0 393.1L828.9 393.1L828.9 402.2ZM845.0 402.2L841.6 402.2L841.6 387.4L845.0 387.4L845.0 402.2ZM845.1 385.0L841.5 385.0L841.5 381.3L845.1 381.3L845.1 385.0Z" fill="#9fa5ac"/><path d="M378.1 460.8L376.2 460.8L376.2 448.4L378.0 448.4L378.0 450.2L378.1 450.2Q378.2 449.4 378.7 448.9L378.7 448.9Q379.4 448.3 380.6 448.3L380.6 448.3Q382.0 448.3 382.8 449.2Q383.7 450.1 383.7 451.8L383.7 451.8L383.7 454.4Q383.7 455.5 383.3 456.3Q382.9 457.1 382.2 457.5Q381.5 457.9 380.6 457.9L380.6 457.9Q379.4 457.9 378.7 457.3L378.7 457.3Q378.2 456.8 378.1 456.0L378.1 456.0L378.0 456.0L378.1 458.2L378.1 460.8ZM380.0 456.4L380.0 456.4Q380.9 456.4 381.4 455.8Q381.9 455.3 381.9 454.3L381.9 454.3L381.9 451.9Q381.9 450.9 381.4 450.4Q380.9 449.9 380.0 449.9L380.0 449.9Q379.1 449.9 378.6 450.4Q378.1 450.9 378.1 451.9L378.1 451.9L378.1 454.3Q378.1 455.3 378.6 455.8Q379.1 456.4 380.0 456.4ZM394.2 457.8L391.2 457.8Q390.4 457.8 389.7 457.4Q389.1 457.1 388.7 456.4Q388.4 455.8 388.4 454.9L388.4 454.9L388.4 447.0L385.3 447.0L385.3 445.4L390.2 445.4L390.2 454.9Q390.2 455.5 390.5 455.8Q390.8 456.1 391.3 456.1L391.3 456.1L394.2 456.1L394.2 457.8ZM399.0 457.9L399.0 457.9Q397.5 457.9 396.7 457.2Q395.8 456.4 395.8 455.1L395.8 455.1Q395.8 453.8 396.7 453.0Q397.6 452.3 399.2 452.3L399.2 452.3L401.8 452.3L401.8 451.4Q401.8 450.7 401.3 450.2Q400.8 449.8 400.0 449.8L400.0 449.8Q399.2 449.8 398.7 450.1Q398.2 450.5 398.1 451.0L398.1 451.0L396.3 451.0Q396.4 449.8 397.4 449.0Q398.5 448.3 400.0 448.3L400.0 448.3Q401.7 448.3 402.6 449.1Q403.6 449.9 403.6 451.4L403.6 451.4L403.6 457.8L401.8 457.8L401.8 456.1L401.8 456.1Q401.7 456.8 401.0 457.3L401.0 457.3Q400.3 457.9 399.0 457.9ZM399.5 456.5L399.5 456.5Q400.5 456.5 401.1 456.0Q401.8 455.5 401.8 454.8L401.8 454.8L401.8 453.5L399.2 453.5Q398.5 453.5 398.1 453.9Q397.7 454.3 397.7 455.0L397.7 455.0Q397.7 455.7 398.1 456.1Q398.6 456.5 399.5 456.5ZM408.1 457.8L406.2 457.8L406.2 448.4L408.0 448.4L408.0 450.2L408.1 450.2Q408.2 449.4 408.7 448.9L408.7 448.9Q409.4 448.3 410.5 448.3L410.5 448.3Q411.9 448.3 412.8 449.2Q413.6 450.0 413.6 451.6L413.6 451.6L413.6 457.8L411.8 457.8L411.8 451.8Q411.8 450.8 411.3 450.4Q410.8 449.9 409.9 449.9L409.9 449.9Q409.1 449.9 408.6 450.4Q408.1 450.9 408.1 451.9L408.1 451.9L408.1 457.8Z" fill="#6f757b"/><g stroke="#6389ff" stroke-width="1.7" fill="none" stroke-linecap="round" stroke-linejoin="round">
      <line x1="424.59999999999997" y1="452" x2="437.59999999999997" y2="452"/>
      <path d="M434.4 449.4 L437.59999999999997 452 L434.4 454.6"/></g><path d="M452.1 457.9L451.4 457.9Q450.4 457.9 449.6 457.6Q448.9 457.3 448.4 456.7Q448.0 456.1 447.9 455.4L447.9 455.4L449.8 455.4Q449.8 455.8 450.3 456.1Q450.7 456.4 451.4 456.4L451.4 456.4L452.1 456.4Q452.9 456.4 453.4 456.0Q453.8 455.7 453.8 455.1L453.8 455.1Q453.8 454.6 453.4 454.3Q453.0 454.0 452.3 453.9L452.3 453.9L451.1 453.7Q449.6 453.4 448.9 452.8Q448.2 452.2 448.2 451.0L448.2 451.0Q448.2 449.7 449.0 449.0Q449.8 448.3 451.5 448.3L451.5 448.3L452.1 448.3Q453.6 448.3 454.5 448.9Q455.4 449.6 455.5 450.7L455.5 450.7L453.6 450.7Q453.6 450.3 453.2 450.1Q452.8 449.8 452.1 449.8L452.1 449.8L451.5 449.8Q450.7 449.8 450.3 450.1Q450.0 450.4 450.0 451.0L450.0 451.0Q450.0 451.5 450.3 451.8Q450.6 452.0 451.3 452.1L451.3 452.1L452.5 452.3Q454.1 452.5 454.9 453.2Q455.6 453.9 455.6 455.1L455.6 455.1Q455.6 456.4 454.7 457.2Q453.8 457.9 452.1 457.9L452.1 457.9ZM466.1 457.8L458.0 457.8L458.0 456.1L461.3 456.1L461.3 450.1L458.4 450.1L458.4 448.4L463.0 448.4L463.0 456.1L466.1 456.1L466.1 457.8ZM462.0 446.8L462.0 446.8Q461.4 446.8 461.0 446.5Q460.7 446.2 460.7 445.7L460.7 445.7Q460.7 445.1 461.0 444.8Q461.4 444.5 462.0 444.5L462.0 444.5Q462.6 444.5 462.9 444.8Q463.3 445.1 463.3 445.7L463.3 445.7Q463.3 446.2 462.9 446.5Q462.6 446.8 462.0 446.8ZM469.3 457.8L467.6 457.8L467.6 448.4L469.1 448.4L469.1 449.6L469.2 449.6Q469.3 449.1 469.6 448.7L469.6 448.7Q470.1 448.3 470.8 448.3L470.8 448.3Q471.5 448.3 472.0 448.9L472.0 448.9Q472.2 449.2 472.3 449.6L472.3 449.6L472.4 449.6Q472.4 449.1 472.8 448.7L472.8 448.7Q473.2 448.3 473.9 448.3L473.9 448.3Q474.8 448.3 475.3 448.9Q475.8 449.6 475.8 450.7L475.8 450.7L475.8 457.8L474.2 457.8L474.2 450.7Q474.2 450.2 473.9 449.9Q473.7 449.6 473.3 449.6Q472.9 449.6 472.6 449.9Q472.4 450.2 472.4 450.7L472.4 450.7L472.4 457.8L471.0 457.8L471.0 450.7Q471.0 450.2 470.8 449.9Q470.5 449.6 470.1 449.6L470.1 449.6Q469.7 449.6 469.5 449.9Q469.3 450.2 469.3 450.7L469.3 450.7L469.3 457.8ZM481.7 457.9L481.7 457.9Q480.0 457.9 479.0 457.0Q478.0 456.0 478.0 454.3L478.0 454.3L478.0 448.4L479.8 448.4L479.8 454.3Q479.8 455.3 480.3 455.8Q480.8 456.4 481.7 456.4L481.7 456.4Q482.6 456.4 483.1 455.8Q483.6 455.3 483.6 454.3L483.6 454.3L483.6 448.4L485.4 448.4L485.4 454.3Q485.4 456.0 484.4 457.0Q483.4 457.9 481.7 457.9ZM496.0 457.8L493.0 457.8Q492.2 457.8 491.5 457.4Q490.9 457.1 490.5 456.4Q490.2 455.8 490.2 454.9L490.2 454.9L490.2 447.0L487.1 447.0L487.1 445.4L492.0 445.4L492.0 454.9Q492.0 455.5 492.3 455.8Q492.6 456.1 493.1 456.1L493.1 456.1L496.0 456.1L496.0 457.8ZM500.8 457.9L500.8 457.9Q499.3 457.9 498.5 457.2Q497.6 456.4 497.6 455.1L497.6 455.1Q497.6 453.8 498.5 453.0Q499.4 452.3 501.0 452.3L501.0 452.3L503.6 452.3L503.6 451.4Q503.6 450.7 503.1 450.2Q502.6 449.8 501.8 449.8L501.8 449.8Q501.0 449.8 500.5 450.1Q500.0 450.5 499.9 451.0L499.9 451.0L498.1 451.0Q498.2 449.8 499.2 449.0Q500.3 448.3 501.8 448.3L501.8 448.3Q503.5 448.3 504.4 449.1Q505.4 449.9 505.4 451.4L505.4 451.4L505.4 457.8L503.6 457.8L503.6 456.1L503.6 456.1Q503.5 456.8 502.8 457.3L502.8 457.3Q502.1 457.9 500.8 457.9ZM501.3 456.5L501.3 456.5Q502.3 456.5 502.9 456.0Q503.6 455.5 503.6 454.8L503.6 454.8L503.6 453.5L501.0 453.5Q500.3 453.5 499.9 453.9Q499.5 454.3 499.5 455.0L499.5 455.0Q499.5 455.7 499.9 456.1Q500.4 456.5 501.3 456.5ZM515.3 457.8L512.7 457.8Q511.4 457.8 510.7 457.1Q510.0 456.4 510.0 455.1L510.0 455.1L510.0 450.1L507.4 450.1L507.4 448.4L510.0 448.4L510.0 445.8L511.9 445.8L511.9 448.4L515.5 448.4L515.5 450.1L511.9 450.1L511.9 455.1Q511.9 456.1 512.8 456.1L512.8 456.1L515.3 456.1L515.3 457.8ZM521.7 457.9L521.7 457.9Q520.6 457.9 519.7 457.5Q518.8 457.0 518.4 456.2Q517.9 455.4 517.9 454.3L517.9 454.3L517.9 451.9Q517.9 450.8 518.4 450.0Q518.8 449.2 519.7 448.7Q520.6 448.3 521.7 448.3L521.7 448.3Q522.9 448.3 523.7 448.7Q524.6 449.2 525.0 450.0Q525.5 450.8 525.5 451.9L525.5 451.9L525.5 453.5L519.7 453.5L519.7 454.3Q519.7 455.4 520.2 455.9Q520.7 456.5 521.7 456.5L521.7 456.5Q522.5 456.5 523.0 456.2Q523.5 455.9 523.6 455.3L523.6 455.3L525.4 455.3Q525.2 456.5 524.2 457.2Q523.2 457.9 521.7 457.9ZM519.7 452.3L523.7 452.3L523.7 451.9Q523.7 450.8 523.2 450.3Q522.7 449.7 521.7 449.7L521.7 449.7Q520.7 449.7 520.2 450.3Q519.7 450.8 519.7 451.9L519.7 451.9L519.7 452.3Z" fill="#6f757b"/><g stroke="#6389ff" stroke-width="1.7" fill="none" stroke-linecap="round" stroke-linejoin="round">
      <line x1="537.1999999999999" y1="452" x2="550.1999999999999" y2="452"/>
      <path d="M546.9999999999999 449.4 L550.1999999999999 452 L546.9999999999999 454.6"/></g><path d="M562.5 460.8L560.6 460.8L560.6 448.4L562.4 448.4L562.4 450.2L562.5 450.2Q562.6 449.4 563.1 448.9L563.1 448.9Q563.8 448.3 565.0 448.3L565.0 448.3Q566.4 448.3 567.2 449.2Q568.1 450.1 568.1 451.8L568.1 451.8L568.1 454.4Q568.1 455.5 567.7 456.3Q567.3 457.1 566.6 457.5Q565.9 457.9 565.0 457.9L565.0 457.9Q563.8 457.9 563.1 457.3L563.1 457.3Q562.6 456.8 562.5 456.0L562.5 456.0L562.4 456.0L562.5 458.2L562.5 460.8ZM564.4 456.4L564.4 456.4Q565.3 456.4 565.8 455.8Q566.3 455.3 566.3 454.3L566.3 454.3L566.3 451.9Q566.3 450.9 565.8 450.4Q565.3 449.9 564.4 449.9L564.4 449.9Q563.5 449.9 563.0 450.4Q562.5 450.9 562.5 451.9L562.5 451.9L562.5 454.3Q562.5 455.3 563.0 455.8Q563.5 456.4 564.4 456.4ZM572.8 457.8L570.9 457.8L570.9 448.4L572.7 448.4L572.7 450.2Q572.9 449.5 573.2 449.0L573.2 449.0Q573.9 448.3 575.2 448.3L575.2 448.3Q576.7 448.3 577.6 449.2Q578.5 450.1 578.5 451.7L578.5 451.7L578.5 452.4L576.6 452.4L576.6 451.9Q576.6 450.9 576.1 450.3Q575.6 449.8 574.7 449.8Q573.8 449.8 573.3 450.4Q572.8 450.9 572.8 451.9L572.8 451.9L572.8 457.8ZM584.3 457.9L584.3 457.9Q583.1 457.9 582.3 457.5Q581.4 457.0 581.0 456.2Q580.5 455.4 580.5 454.3L580.5 454.3L580.5 451.9Q580.5 450.8 581.0 450.0Q581.4 449.2 582.3 448.7Q583.1 448.3 584.3 448.3L584.3 448.3Q585.5 448.3 586.3 448.7Q587.2 449.2 587.6 450.0Q588.1 450.8 588.1 451.9L588.1 451.9L588.1 454.3Q588.1 455.4 587.6 456.2Q587.2 457.0 586.3 457.5Q585.5 457.9 584.3 457.9ZM584.3 456.3L584.3 456.3Q585.2 456.3 585.7 455.8Q586.3 455.3 586.3 454.3L586.3 454.3L586.3 451.9Q586.3 450.9 585.7 450.4Q585.2 449.9 584.3 449.9L584.3 449.9Q583.4 449.9 582.9 450.4Q582.3 450.9 582.3 451.9L582.3 451.9L582.3 454.3Q582.3 455.3 582.9 455.8Q583.4 456.3 584.3 456.3ZM592.5 460.8L590.6 460.8L590.6 448.4L592.4 448.4L592.4 450.2L592.5 450.2Q592.6 449.4 593.1 448.9L593.1 448.9Q593.8 448.3 595.0 448.3L595.0 448.3Q596.4 448.3 597.2 449.2Q598.1 450.1 598.1 451.8L598.1 451.8L598.1 454.4Q598.1 455.5 597.7 456.3Q597.3 457.1 596.6 457.5Q595.9 457.9 595.0 457.9L595.0 457.9Q593.8 457.9 593.1 457.3L593.1 457.3Q592.6 456.8 592.5 456.0L592.5 456.0L592.4 456.0L592.5 458.2L592.5 460.8ZM594.4 456.4L594.4 456.4Q595.3 456.4 595.8 455.8Q596.3 455.3 596.3 454.3L596.3 454.3L596.3 451.9Q596.3 450.9 595.8 450.4Q595.3 449.9 594.4 449.9L594.4 449.9Q593.5 449.9 593.0 450.4Q592.5 450.9 592.5 451.9L592.5 451.9L592.5 454.3Q592.5 455.3 593.0 455.8Q593.5 456.4 594.4 456.4ZM604.3 457.9L604.3 457.9Q603.1 457.9 602.3 457.5Q601.4 457.0 601.0 456.2Q600.5 455.4 600.5 454.3L600.5 454.3L600.5 451.9Q600.5 450.8 601.0 450.0Q601.4 449.2 602.3 448.7Q603.1 448.3 604.3 448.3L604.3 448.3Q605.5 448.3 606.3 448.7Q607.2 449.2 607.6 450.0Q608.1 450.8 608.1 451.9L608.1 451.9L608.1 454.3Q608.1 455.4 607.6 456.2Q607.2 457.0 606.3 457.5Q605.5 457.9 604.3 457.9ZM604.3 456.3L604.3 456.3Q605.2 456.3 605.7 455.8Q606.3 455.3 606.3 454.3L606.3 454.3L606.3 451.9Q606.3 450.9 605.7 450.4Q605.2 449.9 604.3 449.9L604.3 449.9Q603.4 449.9 602.9 450.4Q602.3 450.9 602.3 451.9L602.3 451.9L602.3 454.3Q602.3 455.3 602.9 455.8Q603.4 456.3 604.3 456.3ZM614.7 457.9L614.0 457.9Q613.0 457.9 612.2 457.6Q611.5 457.3 611.0 456.7Q610.6 456.1 610.5 455.4L610.5 455.4L612.4 455.4Q612.4 455.8 612.9 456.1Q613.3 456.4 614.0 456.4L614.0 456.4L614.7 456.4Q615.5 456.4 616.0 456.0Q616.4 455.7 616.4 455.1L616.4 455.1Q616.4 454.6 616.0 454.3Q615.6 454.0 614.9 453.9L614.9 453.9L613.7 453.7Q612.2 453.4 611.5 452.8Q610.8 452.2 610.8 451.0L610.8 451.0Q610.8 449.7 611.6 449.0Q612.4 448.3 614.1 448.3L614.1 448.3L614.7 448.3Q616.2 448.3 617.1 448.9Q618.0 449.6 618.1 450.7L618.1 450.7L616.2 450.7Q616.2 450.3 615.8 450.1Q615.4 449.8 614.7 449.8L614.7 449.8L614.1 449.8Q613.3 449.8 612.9 450.1Q612.6 450.4 612.6 451.0L612.6 451.0Q612.6 451.5 612.9 451.8Q613.2 452.0 613.9 452.1L613.9 452.1L615.1 452.3Q616.7 452.5 617.5 453.2Q618.2 453.9 618.2 455.1L618.2 455.1Q618.2 456.4 617.3 457.2Q616.4 457.9 614.7 457.9L614.7 457.9ZM624.3 457.9L624.3 457.9Q623.2 457.9 622.3 457.5Q621.4 457.0 621.0 456.2Q620.5 455.4 620.5 454.3L620.5 454.3L620.5 451.9Q620.5 450.8 621.0 450.0Q621.4 449.2 622.3 448.7Q623.2 448.3 624.3 448.3L624.3 448.3Q625.5 448.3 626.3 448.7Q627.2 449.2 627.6 450.0Q628.1 450.8 628.1 451.9L628.1 451.9L628.1 453.5L622.3 453.5L622.3 454.3Q622.3 455.4 622.8 455.9Q623.3 456.5 624.3 456.5L624.3 456.5Q625.1 456.5 625.6 456.2Q626.1 455.9 626.2 455.3L626.2 455.3L628.0 455.3Q627.8 456.5 626.8 457.2Q625.8 457.9 624.3 457.9ZM622.3 452.3L626.3 452.3L626.3 451.9Q626.3 450.8 625.8 450.3Q625.3 449.7 624.3 449.7L624.3 449.7Q623.3 449.7 622.8 450.3Q622.3 450.8 622.3 451.9L622.3 451.9L622.3 452.3Z" fill="#6f757b"/><g stroke="#6389ff" stroke-width="1.7" fill="none" stroke-linecap="round" stroke-linejoin="round">
      <line x1="639.5999999999999" y1="452" x2="652.5999999999999" y2="452"/>
      <path d="M649.3999999999999 449.4 L652.5999999999999 452 L649.3999999999999 454.6"/></g><path d="M666.7 457.9L666.7 457.9Q665.6 457.9 664.7 457.5Q663.8 457.0 663.4 456.2Q662.9 455.4 662.9 454.3L662.9 454.3L662.9 451.9Q662.9 450.8 663.4 450.0Q663.8 449.2 664.7 448.7Q665.6 448.3 666.7 448.3L666.7 448.3Q667.9 448.3 668.7 448.7Q669.6 449.2 670.0 450.0Q670.5 450.8 670.5 451.9L670.5 451.9L670.5 453.5L664.7 453.5L664.7 454.3Q664.7 455.4 665.2 455.9Q665.7 456.5 666.7 456.5L666.7 456.5Q667.5 456.5 668.0 456.2Q668.5 455.9 668.6 455.3L668.6 455.3L670.4 455.3Q670.2 456.5 669.2 457.2Q668.2 457.9 666.7 457.9ZM664.7 452.3L668.7 452.3L668.7 451.9Q668.7 450.8 668.2 450.3Q667.7 449.7 666.7 449.7L666.7 449.7Q665.7 449.7 665.2 450.3Q664.7 450.8 664.7 451.9L664.7 451.9L664.7 452.3ZM674.4 457.8L672.3 457.8L675.6 453.0L672.5 448.4L674.6 448.4L676.3 451.0Q676.4 451.2 676.5 451.4Q676.6 451.7 676.7 451.8L676.7 451.8Q676.8 451.7 676.9 451.4Q677.0 451.2 677.1 451.0L677.1 451.0L678.8 448.4L680.9 448.4L677.8 453.0L681.1 457.8L679.0 457.8L677.1 455.0Q677.0 454.8 676.9 454.5Q676.8 454.3 676.7 454.1L676.7 454.1Q676.6 454.3 676.5 454.5Q676.4 454.8 676.3 455.0L676.3 455.0L674.4 457.8ZM686.7 457.9L686.7 457.9Q685.6 457.9 684.7 457.5Q683.8 457.0 683.4 456.2Q682.9 455.4 682.9 454.3L682.9 454.3L682.9 451.9Q682.9 450.8 683.4 450.0Q683.8 449.2 684.7 448.7Q685.6 448.3 686.7 448.3L686.7 448.3Q687.9 448.3 688.7 448.7Q689.6 449.2 690.0 450.0Q690.5 450.8 690.5 451.9L690.5 451.9L690.5 453.5L684.7 453.5L684.7 454.3Q684.7 455.4 685.2 455.9Q685.7 456.5 686.7 456.5L686.7 456.5Q687.5 456.5 688.0 456.2Q688.5 455.9 688.6 455.3L688.6 455.3L690.4 455.3Q690.2 456.5 689.2 457.2Q688.2 457.9 686.7 457.9ZM684.7 452.3L688.7 452.3L688.7 451.9Q688.7 450.8 688.2 450.3Q687.7 449.7 686.7 449.7L686.7 449.7Q685.7 449.7 685.2 450.3Q684.7 450.8 684.7 451.9L684.7 451.9L684.7 452.3ZM696.8 457.9L696.8 457.9Q695.6 457.9 694.7 457.5Q693.9 457.1 693.4 456.3Q692.9 455.4 692.9 454.3L692.9 454.3L692.9 451.9Q692.9 450.8 693.4 449.9Q693.9 449.1 694.7 448.7Q695.6 448.3 696.8 448.3L696.8 448.3Q698.5 448.3 699.5 449.1Q700.5 450.0 700.5 451.6L700.5 451.6L698.7 451.6Q698.7 450.8 698.1 450.3Q697.6 449.9 696.8 449.9L696.8 449.9Q695.8 449.9 695.3 450.4Q694.7 450.9 694.7 451.9L694.7 451.9L694.7 454.3Q694.7 455.3 695.3 455.8Q695.8 456.3 696.8 456.3L696.8 456.3Q697.6 456.3 698.1 455.9Q698.7 455.5 698.7 454.7L698.7 454.7L700.5 454.7Q700.5 456.2 699.5 457.1Q698.5 457.9 696.8 457.9ZM706.7 457.9L706.7 457.9Q705.0 457.9 704.0 457.0Q703.0 456.0 703.0 454.3L703.0 454.3L703.0 448.4L704.8 448.4L704.8 454.3Q704.8 455.3 705.3 455.8Q705.8 456.4 706.7 456.4L706.7 456.4Q707.6 456.4 708.1 455.8Q708.6 455.3 708.6 454.3L708.6 454.3L708.6 448.4L710.4 448.4L710.4 454.3Q710.4 456.0 709.4 457.0Q708.4 457.9 706.7 457.9ZM720.3 457.8L717.7 457.8Q716.4 457.8 715.7 457.1Q715.0 456.4 715.0 455.1L715.0 455.1L715.0 450.1L712.4 450.1L712.4 448.4L715.0 448.4L715.0 445.8L716.9 445.8L716.9 448.4L720.5 448.4L720.5 450.1L716.9 450.1L716.9 455.1Q716.9 456.1 717.8 456.1L717.8 456.1L720.3 456.1L720.3 457.8ZM726.7 457.9L726.7 457.9Q725.6 457.9 724.7 457.5Q723.8 457.0 723.4 456.2Q722.9 455.4 722.9 454.3L722.9 454.3L722.9 451.9Q722.9 450.8 723.4 450.0Q723.8 449.2 724.7 448.7Q725.6 448.3 726.7 448.3L726.7 448.3Q727.9 448.3 728.7 448.7Q729.6 449.2 730.0 450.0Q730.5 450.8 730.5 451.9L730.5 451.9L730.5 453.5L724.7 453.5L724.7 454.3Q724.7 455.4 725.2 455.9Q725.7 456.5 726.7 456.5L726.7 456.5Q727.5 456.5 728.0 456.2Q728.5 455.9 728.6 455.3L728.6 455.3L730.4 455.3Q730.2 456.5 729.2 457.2Q728.2 457.9 726.7 457.9ZM724.7 452.3L728.7 452.3L728.7 451.9Q728.7 450.8 728.2 450.3Q727.7 449.7 726.7 449.7L726.7 449.7Q725.7 449.7 725.2 450.3Q724.7 450.8 724.7 451.9L724.7 451.9L724.7 452.3Z" fill="#6f757b"/><g stroke="#6389ff" stroke-width="1.7" fill="none" stroke-linecap="round" stroke-linejoin="round">
      <line x1="741.9999999999999" y1="452" x2="754.9999999999999" y2="452"/>
      <path d="M751.7999999999998 449.4 L754.9999999999999 452 L751.7999999999998 454.6"/></g><path d="M767.6 457.8L765.7 457.8L765.7 448.4L767.5 448.4L767.5 450.2Q767.7 449.5 768.0 449.0L768.0 449.0Q768.7 448.3 770.0 448.3L770.0 448.3Q771.5 448.3 772.4 449.2Q773.3 450.1 773.3 451.7L773.3 451.7L773.3 452.4L771.4 452.4L771.4 451.9Q771.4 450.9 770.9 450.3Q770.4 449.8 769.5 449.8Q768.6 449.8 768.1 450.4Q767.6 450.9 767.6 451.9L767.6 451.9L767.6 457.8ZM779.1 457.9L779.1 457.9Q778.0 457.9 777.1 457.5Q776.2 457.0 775.8 456.2Q775.3 455.4 775.3 454.3L775.3 454.3L775.3 451.9Q775.3 450.8 775.8 450.0Q776.2 449.2 777.1 448.7Q778.0 448.3 779.1 448.3L779.1 448.3Q780.3 448.3 781.1 448.7Q782.0 449.2 782.4 450.0Q782.9 450.8 782.9 451.9L782.9 451.9L782.9 453.5L777.1 453.5L777.1 454.3Q777.1 455.4 777.6 455.9Q778.1 456.5 779.1 456.5L779.1 456.5Q779.9 456.5 780.4 456.2Q780.9 455.9 781.0 455.3L781.0 455.3L782.8 455.3Q782.6 456.5 781.6 457.2Q780.6 457.9 779.1 457.9ZM777.1 452.3L781.1 452.3L781.1 451.9Q781.1 450.8 780.6 450.3Q780.1 449.7 779.1 449.7L779.1 449.7Q778.1 449.7 777.6 450.3Q777.1 450.8 777.1 451.9L777.1 451.9L777.1 452.3ZM789.2 457.9L789.2 457.9Q788.0 457.9 787.1 457.5Q786.3 457.1 785.8 456.3Q785.3 455.4 785.3 454.3L785.3 454.3L785.3 451.9Q785.3 450.8 785.8 449.9Q786.3 449.1 787.1 448.7Q788.0 448.3 789.2 448.3L789.2 448.3Q790.9 448.3 791.9 449.1Q792.9 450.0 792.9 451.6L792.9 451.6L791.1 451.6Q791.1 450.8 790.5 450.3Q790.0 449.9 789.2 449.9L789.2 449.9Q788.2 449.9 787.7 450.4Q787.1 450.9 787.1 451.9L787.1 451.9L787.1 454.3Q787.1 455.3 787.7 455.8Q788.2 456.3 789.2 456.3L789.2 456.3Q790.0 456.3 790.5 455.9Q791.1 455.5 791.1 454.7L791.1 454.7L792.9 454.7Q792.9 456.2 791.9 457.1Q790.9 457.9 789.2 457.9ZM799.1 457.9L799.1 457.9Q797.9 457.9 797.1 457.5Q796.2 457.0 795.8 456.2Q795.3 455.4 795.3 454.3L795.3 454.3L795.3 451.9Q795.3 450.8 795.8 450.0Q796.2 449.2 797.1 448.7Q797.9 448.3 799.1 448.3L799.1 448.3Q800.3 448.3 801.1 448.7Q802.0 449.2 802.4 450.0Q802.9 450.8 802.9 451.9L802.9 451.9L802.9 454.3Q802.9 455.4 802.4 456.2Q802.0 457.0 801.1 457.5Q800.3 457.9 799.1 457.9ZM799.1 456.3L799.1 456.3Q800.0 456.3 800.5 455.8Q801.1 455.3 801.1 454.3L801.1 454.3L801.1 451.9Q801.1 450.9 800.5 450.4Q800.0 449.9 799.1 449.9L799.1 449.9Q798.2 449.9 797.7 450.4Q797.1 450.9 797.1 451.9L797.1 451.9L797.1 454.3Q797.1 455.3 797.7 455.8Q798.2 456.3 799.1 456.3ZM807.6 457.8L805.7 457.8L805.7 448.4L807.5 448.4L807.5 450.2Q807.7 449.5 808.0 449.0L808.0 449.0Q808.7 448.3 810.0 448.3L810.0 448.3Q811.5 448.3 812.4 449.2Q813.3 450.1 813.3 451.7L813.3 451.7L813.3 452.4L811.4 452.4L811.4 451.9Q811.4 450.9 810.9 450.3Q810.4 449.8 809.5 449.8Q808.6 449.8 808.1 450.4Q807.6 450.9 807.6 451.9L807.6 451.9L807.6 457.8ZM818.4 457.9L818.4 457.9Q817.0 457.9 816.2 457.0Q815.3 456.0 815.3 454.4L815.3 454.4L815.3 451.8Q815.3 450.2 816.2 449.2Q817.0 448.3 818.4 448.3L818.4 448.3Q819.6 448.3 820.3 448.9L820.3 448.9Q820.8 449.4 820.9 450.2L820.9 450.2L821.0 450.2L820.9 448.0L820.9 445.4L822.8 445.4L822.8 457.8L821.0 457.8L821.0 456.0L820.9 456.0Q820.8 456.8 820.3 457.3L820.3 457.3Q819.6 457.9 818.4 457.9ZM819.1 456.4L819.1 456.4Q819.9 456.4 820.4 455.8Q820.9 455.3 820.9 454.3L820.9 454.3L820.9 451.9Q820.9 450.9 820.4 450.4Q819.9 449.9 819.1 449.9L819.1 449.9Q818.2 449.9 817.7 450.4Q817.1 450.9 817.1 451.9L817.1 451.9L817.1 454.3Q817.1 455.3 817.7 455.8Q818.2 456.4 819.1 456.4Z" fill="#6f757b"/><path d="M522 520 h156 a20 20 0 0 1 20 20 v0 a20 20 0 0 1 -20 20 h-156 a20 20 0 0 1 -20 -20 v0 a20 20 0 0 1 20 -20 z" fill="#15171b" stroke="#3d4046" stroke-width="1"/><rect x="516" y="531" width="18" height="18" rx="5.5" fill="#000"/><path d="M521.2 543.1L520.1 543.1L520.1 536.5L521.4 536.5L522.1 538.6Q522.2 538.9 522.2 539.2Q522.3 539.4 522.3 539.5L522.3 539.5Q522.3 539.4 522.4 539.2Q522.5 538.9 522.6 538.6L522.6 538.6L523.2 536.5L524.5 536.5L524.5 543.1L523.4 543.1L523.4 541.0Q523.4 540.6 523.5 540.0Q523.5 539.5 523.5 539.0Q523.6 538.4 523.6 538.0Q523.7 537.5 523.7 537.1L523.7 537.1L522.8 540.2L521.8 540.2L520.9 537.1Q520.9 537.5 521.0 537.9Q521.0 538.4 521.1 538.9Q521.1 539.5 521.1 540.0Q521.2 540.5 521.2 541.0L521.2 541.0L521.2 543.1ZM526.8 543.1L525.7 543.1L525.7 538.1L526.8 538.1L526.8 539.1L526.8 539.1Q526.9 538.6 527.2 538.4L527.2 538.4Q527.5 538.0 528.1 538.0L528.1 538.0Q528.9 538.0 529.3 538.5Q529.7 539.0 529.7 539.8L529.7 539.8L529.7 543.1L528.6 543.1L528.6 539.9Q528.6 539.5 528.4 539.2Q528.1 539.0 527.7 539.0L527.7 539.0Q527.3 539.0 527.1 539.2Q526.8 539.5 526.8 540.0L526.8 540.0L526.8 543.1Z" fill="#fff"/><path d="M549.4 545.4L545.1 545.4L545.1 534.3L548.9 534.3Q550.6 534.3 551.5 535.0Q552.4 535.8 552.4 537.1L552.4 537.1Q552.4 537.9 552.1 538.5Q551.8 539.1 551.2 539.4L551.2 539.4Q552.1 539.7 552.6 540.4Q553.0 541.2 553.0 542.2L553.0 542.2Q553.0 543.7 552.1 544.6Q551.1 545.4 549.4 545.4L549.4 545.4ZM547.0 540.5L547.0 543.7L549.3 543.7Q551.2 543.7 551.2 542.1L551.2 542.1Q551.2 541.4 550.7 540.9Q550.3 540.5 549.5 540.5L549.5 540.5L547.0 540.5ZM547.0 536.0L547.0 538.8L549.1 538.8Q549.8 538.8 550.2 538.5Q550.6 538.1 550.6 537.4L550.6 537.4Q550.6 536.7 550.2 536.4Q549.7 536.0 548.9 536.0L548.9 536.0L547.0 536.0ZM557.5 545.6L557.5 545.6Q556.6 545.6 555.9 545.2Q555.3 544.8 555.0 544.2Q554.7 543.5 554.7 542.5L554.7 542.5L554.7 537.6L556.4 537.6L556.4 542.0Q556.4 542.6 556.6 543.1Q556.8 543.6 557.1 543.8Q557.4 544.0 558.0 544.0L558.0 544.0Q558.7 544.0 559.1 543.7Q559.5 543.3 559.7 542.6Q559.8 541.9 559.8 540.9L559.8 540.9L559.8 537.6L561.6 537.6L561.6 545.4L559.8 545.4L559.8 544.4Q559.5 544.9 559.1 545.2L559.1 545.2Q558.4 545.6 557.5 545.6ZM565.5 545.4L563.7 545.4L563.7 537.6L565.5 537.6L565.5 545.4ZM565.6 536.3L563.6 536.3L563.6 534.3L565.6 534.3L565.6 536.3ZM569.3 545.6L569.3 545.6Q568.5 545.6 568.0 545.1Q567.5 544.6 567.5 543.6L567.5 543.6L567.5 534.3L569.3 534.3L569.3 543.2Q569.3 543.6 569.4 543.8Q569.6 544.0 569.9 544.0L569.9 544.0Q570.0 544.0 570.2 543.9Q570.3 543.9 570.5 543.8L570.5 543.8L570.5 545.3Q570.2 545.5 569.9 545.5Q569.5 545.6 569.3 545.6ZM574.7 545.6L574.7 545.6Q574.1 545.6 573.6 545.4Q573.0 545.1 572.7 544.6Q572.4 544.1 572.4 543.2L572.4 543.2L572.4 538.9L570.9 538.9L570.9 537.6L572.4 537.6L572.4 535.6L574.2 534.6L574.2 537.6L576.0 537.6L576.0 538.9L574.2 538.9L574.2 542.7Q574.2 543.4 574.4 543.8Q574.6 544.1 575.2 544.1L575.2 544.1Q575.3 544.1 575.5 544.1Q575.7 544.0 576.0 544.0L576.0 544.0L576.0 545.4Q575.7 545.5 575.3 545.5Q575.0 545.6 574.7 545.6ZM585.3 545.6L585.3 545.6Q584.2 545.6 583.3 545.1Q582.4 544.5 581.9 543.6Q581.4 542.7 581.4 541.5L581.4 541.5Q581.4 540.3 581.9 539.4Q582.4 538.4 583.3 537.9Q584.1 537.4 585.3 537.4L585.3 537.4Q586.4 537.4 587.3 537.9Q588.2 538.4 588.7 539.4Q589.2 540.3 589.2 541.5L589.2 541.5Q589.2 542.7 588.7 543.6Q588.2 544.5 587.3 545.1Q586.4 545.6 585.3 545.6ZM585.3 544.0L585.3 544.0Q586.0 544.0 586.4 543.7Q586.9 543.4 587.2 542.8Q587.4 542.3 587.4 541.5L587.4 541.5Q587.4 540.7 587.2 540.1Q586.9 539.6 586.4 539.3Q586.0 539.0 585.3 539.0L585.3 539.0Q584.6 539.0 584.1 539.3Q583.6 539.6 583.4 540.1Q583.1 540.7 583.1 541.5L583.1 541.5Q583.1 542.3 583.4 542.8Q583.6 543.4 584.1 543.7Q584.6 544.0 585.3 544.0ZM592.7 545.4L590.9 545.4L590.9 537.6L592.7 537.6L592.7 538.6Q592.8 538.4 593.0 538.3L593.0 538.3Q593.4 537.8 593.9 537.6Q594.4 537.4 595.0 537.4L595.0 537.4Q596.4 537.4 597.1 538.2Q597.9 538.9 597.9 540.3L597.9 540.3L597.9 545.4L596.1 545.4L596.1 541.0Q596.1 539.9 595.7 539.4Q595.3 538.9 594.5 538.9L594.5 538.9Q593.9 538.9 593.5 539.2Q593.1 539.5 592.9 540.1Q592.7 540.7 592.7 541.6L592.7 541.6L592.7 545.4ZM606.0 545.4L604.1 545.4L604.1 534.3L606.8 534.3L609.8 542.2L612.8 534.3L615.5 534.3L615.5 545.4L613.6 545.4L613.6 536.9L610.7 544.5L608.9 544.5L606.0 536.9L606.0 545.4ZM624.4 545.4L622.7 545.4L622.6 544.3Q622.6 544.4 622.5 544.4L622.5 544.4Q622.1 545.0 621.5 545.3Q621.0 545.6 620.3 545.6L620.3 545.6Q619.4 545.6 618.7 545.3Q618.0 544.9 617.7 544.4Q617.3 543.8 617.3 543.0L617.3 543.0Q617.3 542.4 617.6 541.9Q617.8 541.4 618.3 541.1L618.3 541.1Q618.7 540.9 619.2 540.8Q619.7 540.7 620.3 540.7L620.3 540.7L622.6 540.7L622.6 540.5Q622.6 539.7 622.1 539.3Q621.7 538.9 620.8 538.9L620.8 538.9Q620.2 538.9 619.6 539.2Q619.0 539.4 618.4 539.9L618.4 539.9L617.5 538.8Q618.2 538.0 619.1 537.7Q620.0 537.4 621.0 537.4L621.0 537.4Q622.6 537.4 623.5 538.2Q624.4 539.0 624.4 540.5L624.4 540.5L624.4 545.4ZM622.6 542.2L622.6 542.0L620.5 542.0Q620.2 542.0 619.9 542.1Q619.6 542.1 619.4 542.3L619.4 542.3Q619.3 542.4 619.2 542.6Q619.1 542.8 619.1 543.0L619.1 543.0Q619.1 543.6 619.4 543.8Q619.8 544.1 620.5 544.1L620.5 544.1Q621.1 544.1 621.5 543.9Q622.0 543.6 622.3 543.2Q622.6 542.7 622.6 542.2L622.6 542.2ZM628.1 545.4L626.3 545.4L626.3 537.6L628.1 537.6L628.1 538.6Q628.2 538.4 628.4 538.3L628.4 538.3Q628.8 537.8 629.3 537.6Q629.9 537.4 630.5 537.4L630.5 537.4Q631.8 537.4 632.5 538.2Q633.3 538.9 633.3 540.3L633.3 540.3L633.3 545.4L631.5 545.4L631.5 541.0Q631.5 539.9 631.1 539.4Q630.7 538.9 629.9 538.9L629.9 538.9Q629.3 538.9 628.9 539.2Q628.5 539.5 628.3 540.1Q628.1 540.7 628.1 541.6L628.1 541.6L628.1 545.4ZM638.1 545.6L638.1 545.6Q637.6 545.6 637.0 545.4Q636.5 545.1 636.2 544.6Q635.9 544.1 635.9 543.2L635.9 543.2L635.9 538.9L634.4 538.9L634.4 537.6L635.9 537.6L635.9 535.6L637.7 534.6L637.7 537.6L639.5 537.6L639.5 538.9L637.7 538.9L637.7 542.7Q637.7 543.4 637.9 543.8Q638.1 544.1 638.6 544.1L638.6 544.1Q638.8 544.1 639.0 544.1Q639.2 544.0 639.5 544.0L639.5 544.0L639.5 545.4Q639.1 545.5 638.8 545.5Q638.5 545.6 638.1 545.6ZM642.8 545.6L642.8 545.6Q642.0 545.6 641.5 545.1Q641.0 544.6 641.0 543.6L641.0 543.6L641.0 534.3L642.8 534.3L642.8 543.2Q642.8 543.6 642.9 543.8Q643.1 544.0 643.4 544.0L643.4 544.0Q643.5 544.0 643.7 543.9Q643.8 543.9 644.0 543.8L644.0 543.8L644.0 545.3Q643.7 545.5 643.4 545.5Q643.0 545.6 642.8 545.6ZM648.9 545.6L648.9 545.6Q647.9 545.6 647.1 545.3Q646.4 544.9 646.0 544.4Q645.5 543.8 645.3 543.1Q645.0 542.3 645.0 541.6Q645.0 540.8 645.3 540.0Q645.5 539.3 645.9 538.7Q646.4 538.1 647.1 537.8Q647.8 537.4 648.7 537.4L648.7 537.4Q649.6 537.4 650.3 537.7Q651.0 538.0 651.5 538.6Q651.9 539.1 652.1 539.8Q652.3 540.5 652.3 541.3L652.3 541.3Q652.3 541.5 652.3 541.7Q652.3 541.9 652.3 542.1L652.3 542.1L646.8 542.1Q646.9 543.0 647.5 543.5Q648.0 544.0 648.9 544.0L648.9 544.0Q649.6 544.0 650.1 543.8Q650.7 543.6 651.1 543.2L651.1 543.2L652.1 544.3Q651.6 544.8 651.1 545.1Q650.6 545.3 650.1 545.5Q649.5 545.6 648.9 545.6ZM646.8 540.8L650.6 540.8Q650.6 540.7 650.6 540.7L650.6 540.7Q650.6 540.3 650.5 540Q650.4 539.7 650.2 539.4Q649.9 539.2 649.6 539.0Q649.2 538.9 648.8 538.9L648.8 538.9Q648.1 538.9 647.7 539.2Q647.3 539.4 647.1 539.8Q646.8 540.3 646.8 540.8L646.8 540.8Z" fill="#9fa5ac"/></svg>